<svg xmlns="http://www.w3.org/2000/svg" viewBox="0 0 468 468" width="58px" height="58px">
    <path fill="#F2B950"
          d="M402.271,468H65.729c-27.614,0-50-22.386-50-50V307.962h436.542V418 C452.271,445.614,429.885,468,402.271,468z"/>
    <g>
        <path fill="#8d5c42"
              d="M413.227,371.581H54.773C30.046,371.581,10,351.536,10,326.809V314.78 c0-24.727,20.046-44.773,44.773-44.773h358.454c24.727,0,44.773,20.046,44.773,44.773v12.028 C458,351.536,437.954,371.581,413.227,371.581z"/>
        <g>
            <path fill="#2efb70"
                  d="M423.809,293.105c-31.563,16.303-70.991-1.998-101.279-12.826 c-12.236-4.316-25.626-4.04-37.674,0.776c-56.884,23.193-57.785,28.966-115.379,1.554c-13.457-5.763-28.69-5.763-42.148,0 c-28.78,12.132-52.081,27.775-83.139,10.496c-25.713-11.012-38.594-39.962-29.553-66.417l5.371-15.714h427.982l5.371,15.714 C462.404,253.143,449.522,282.093,423.809,293.105z"/>
        </g>
    </g>
    <g>
        <path fill="#F2B950"
              d="M234,0C121.207,0,27.682,79.492,10.472,183.507c-2.964,17.917,8.424,34.61,23.4,34.61h400.256 c14.976,0,26.364-16.693,23.4-34.61C440.318,79.492,346.793,0,234,0z"/>
        <path fill="#E39911"
              d="M54.328,197.681c-14.976,0-26.364-16.693-23.4-34.61c6.638-40.119,24.638-76.583,50.709-106.252 c-37.083,32.543-62.91,76.79-71.166,126.688c-2.964,17.917,8.424,34.61,23.4,34.61h400.256c10.906,0,19.903-8.857,22.846-20.589 C456.189,197.623,54.328,197.681,54.328,197.681z"/>
        <g>
            <path fill="#fff0c5"
                  d="M283.433,102.389c1.917,5.151,0.501,10.383-3.163,11.688c-3.664,1.304-8.189-1.814-10.106-6.965 c-1.917-5.151-0.501-10.383,3.163-11.688C276.991,94.12,281.516,97.238,283.433,102.389z"/>
            <path fill="#fff0c5"
                  d="M328.371,60.69c1.917,5.151,0.501,10.383-3.163,11.688c-3.664,1.304-8.189-1.814-10.106-6.965 c-1.917-5.151-0.501-10.383,3.163-11.688C321.929,52.421,326.454,55.539,328.371,60.69z"/>
            <path fill="#fff0c5"
                  d="M351.642,115.931c1.917,5.151,0.501,10.383-3.163,11.688c-3.664,1.304-8.189-1.814-10.106-6.965 c-1.917-5.151-0.501-10.383,3.163-11.688C345.2,107.662,349.725,110.78,351.642,115.931z"/>
            <path fill="#fff0c5"
                  d="M184.567,110.943c-1.917,5.151-0.501,10.383,3.163,11.688c3.664,1.304,8.189-1.814,10.106-6.965 c1.917-5.151,0.501-10.383-3.163-11.688C191.009,102.674,186.484,105.792,184.567,110.943z"/>
            <path fill="#fff0c5"
                  d="M216.666,155.849c-1.917,5.151-0.501,10.383,3.163,11.688s8.189-1.814,10.106-6.965 c1.917-5.151,0.501-10.383-3.163-11.688S218.583,150.698,216.666,155.849z"/>
            <path fill="#fff0c5"
                  d="M301.974,165.241c-1.917,5.151-0.501,10.383,3.163,11.688c3.664,1.304,8.189-1.814,10.106-6.965 c1.917-5.151,0.501-10.383-3.163-11.688C308.416,156.972,303.891,160.091,301.974,165.241z"/>
            <path fill="#fff0c5"
                  d="M387.858,165.472c-1.917,5.151-0.501,10.383,3.163,11.688c3.664,1.304,8.189-1.814,10.106-6.965 c1.917-5.151,0.501-10.383-3.163-11.688C394.3,157.203,389.776,160.321,387.858,165.472z"/>
            <path fill="#fff0c5"
                  d="M112.348,102.389c1.917,5.151,0.501,10.383-3.163,11.688c-3.664,1.304-8.189-1.814-10.106-6.965 c-1.917-5.151-0.501-10.383,3.163-11.688C105.906,94.12,110.431,97.238,112.348,102.389z"/>
            <path fill="#fff0c5"
                  d="M66.872,162.519c-1.917,5.151-0.501,10.383,3.163,11.688c3.664,1.304,8.189-1.814,10.106-6.965 c1.917-5.151,0.501-10.383-3.163-11.688S68.789,157.369,66.872,162.519z"/>
            <path fill="#fff0c5"
                  d="M155.038,166.541c1.917,5.151,0.501,10.383-3.163,11.688c-3.664,1.304-8.189-1.814-10.106-6.965 c-1.917-5.151-0.501-10.383,3.163-11.688C148.596,158.272,153.121,161.39,155.038,166.541z"/>
            <path fill="#fff0c5"
                  d="M240.635,49.998c1.917,5.151,0.501,10.383-3.163,11.688s-8.189-1.814-10.106-6.965 c-1.917-5.151-0.501-10.383,3.163-11.688C234.193,41.729,238.718,44.847,240.635,49.998z"/>
            <path fill="#fff0c5"
                  d="M165.738,60.69c1.917,5.151,0.501,10.383-3.163,11.688c-3.664,1.304-8.189-1.814-10.106-6.965 s-0.501-10.383,3.163-11.688C159.296,52.421,163.821,55.539,165.738,60.69z"/>
        </g>
    </g>
</svg>
