<svg xmlns="http://www.w3.org/2000/svg" viewBox="35 60 185 185" width="64px" height="64px">
    <circle cx="128" cy="150.839" r="86.944" fill="#FFA91A"/>
    <circle cx="128" cy="150.839" r="62.015" fill="#e69000"/>
    <path fill="#F2B950"
          d="M132.483,103.461l8.613,26.508c0.631,1.942,2.441,3.257,4.483,3.257h26.187 c5.097,0,7.216,6.522,3.092,9.517l-21.186,15.392c-1.652,1.2-2.344,3.328-1.712,5.27l8.613,26.508 c1.411,4.343-3.559,7.954-7.254,5.27l-22.227-16.149c-1.844-1.34-4.341-1.34-6.185,0l-22.227,16.149 c-3.694,2.684-8.665-0.927-7.254-5.27l8.613-26.508c0.631-1.942-0.06-4.07-1.712-5.27l-21.186-15.392 c-4.123-2.996-2.004-9.517,3.092-9.517h26.187c2.042,0,3.852-1.315,4.483-3.257l8.613-26.508 C124.928,99.119,131.072,99.119,132.483,103.461z"/>
</svg>
