<svg xmlns="http://www.w3.org/2000/svg" viewBox="0 0 443.583 443.583" width="58px" height="58px">
    <path fill="#E31836"
          d="M443.58,283.432c0.23,16.45-13.07,30.36-30,30.36H295.15c-14.93,0-27.68-11.01-29.72-25.9	c-0.014-0.1-23.237-168.514-23.73-172c-2.48-18.03,11.52-34.1,29.72-34.1h118.43c14.99,0,27.68,11.06,29.72,25.9	C424.495,143.476,443.53,280.032,443.58,283.432z"/>
    <path fill="#E31836"
          d="M443.58,283.432c0.23,16.45-13.07,30.36-30,30.36H295.15c-14.933,0-27.682-11.015-29.72-25.9	c-0.945-6.81-3.293-23.897-23.73-172c-2.48-18.03,11.52-34.1,29.72-34.1h78.19c0.271,1.964,20.624,149.639,24.24,175.74	c2.03,14.87,14.77,25.9,29.72,25.9H443.58z"/>
    <path fill="#fff"
          d="M435.85,225.482H256.82c-2.48-18-5.17-37.5-7.58-55h179.02	C430.81,188.892,433.47,208.162,435.85,225.482z"/>
    <path fill="#fff"
          d="M369.42,225.482h-112.6c-2.48-18-5.17-37.5-7.58-55h112.59	C364.52,189.962,367.22,209.522,369.42,225.482z"/>
    <path fill="#AC0234"
          d="M331.13,236.662c-0.108,0.036-49.799,72.564-50.4,73.44c-8.082-4.426-13.972-12.51-15.3-22.21	c-1.456-10.491,2.631,19.059-23.73-172c-2.48-18.03,11.52-34.1,29.72-34.1h46.112c8.241,59.725,4.475,32.423,18.16,131.63	C336.812,221.522,335.26,230.432,331.13,236.662z"/>
    <path fill="#E31836"
          d="M305.28,249.792H32c-1.762-12.738-31.455-228.035-32-232h282.11c15.98,0,29.52,11.79,31.7,27.63	c0.091,0.365,23.095,167.775,23.17,168C339.66,232.772,324.57,249.792,305.28,249.792z"/>
    <path fill="#E31836"
          d="M282.85,45.912c-59.332,0.963-142.948,2.043-185.01,43.88c-22.32,22.2-29.59,51.93-34.12,87.08	c-1.292,10.022-9.342,17.95-19.32,18.68c-10.99,0.81-20.67-6.96-22.32-17.76c-0.106-0.529-3.682-26.459-22.08-160	c4.65,0,282.455-0.017,283.6,0.03C301.55,18.652,300.82,45.633,282.85,45.912z"/>
    <path fill="#fff"
          d="M206.03,161.152l12.04,88.64h-55l-12.04-88.64H19.77c-2.49-18.06-5.12-37.09-7.62-55.28h131.38	c-1.211-8.918-10.414-76.695-11.96-88.08h55c5.746,42.341,3.017,22.243,11.96,88.08h123.61c2.49,18.09,5.21,37.76,7.62,55.28H206.03	z"/>
    <path fill="#fff"
          d="M12.15,105.872h72.79c-10.08,15.86-15.39,34.46-18.91,55.28H19.77	C17.28,143.093,14.65,124.063,12.15,105.872z"/>
    <path fill="#fff" d="M191.13,51.392c-18.67,2.71-36.86,6.86-53.19,13.31l-6.37-46.91h55L191.13,51.392z"/>
    <path fill="#777"
          d="M56.408,296.576c-0.602-4.377-4.638-7.437-9.015-6.835c-4.377,0.602-7.438,4.638-6.835,9.015	l16.518,120.127c0.551,4.007,3.98,6.911,7.915,6.911c4.867,0,8.596-4.289,7.936-9.091L56.408,296.576z"/>
</svg>
