<svg fill="#000000" xmlns="http://www.w3.org/2000/svg" viewBox="0 0 50 50" width="50px" height="50px">
    <path d="M 43.90625 0.96875 C 43.863281 0.976563 43.820313 0.988281 43.78125 1 C 43.316406 1.105469 42.988281 1.523438 43 2 C 43 3.898438 42.121094 4.941406 40.5 5.96875 C 38.878906 6.996094 36.535156 7.828125 34.125 8.84375 C 31.714844 9.859375 29.21875 11.082031 27.28125 13.125 C 25.519531 14.984375 24.296875 17.539063 24.09375 20.96875 C 22.292969 20.820313 21.171875 20.242188 19.96875 19.625 C 18.5 18.871094 16.820313 18 14 18 C 7.980469 18 0 31.683594 0 42 C 0 46.710938 2.46875 50 6 50 C 11.304688 50 14.90625 47.121094 18.09375 44.59375 C 20.53125 42.660156 22.652344 41 25 41 C 27.347656 41 29.46875 42.660156 31.90625 44.59375 C 35.09375 47.121094 38.695313 50 44 50 C 47.53125 50 50 46.710938 50 42 C 50 31.683594 42.019531 18 36 18 C 33.179688 18 31.5 18.871094 30.03125 19.625 C 28.878906 20.21875 27.796875 20.761719 26.125 20.9375 C 26.320313 17.996094 27.300781 16.027344 28.75 14.5 C 30.367188 12.792969 32.578125 11.640625 34.90625 10.65625 C 37.234375 9.671875 39.628906 8.878906 41.5625 7.65625 C 43.496094 6.433594 45 4.601563 45 2 C 45.011719 1.710938 44.894531 1.433594 44.6875 1.238281 C 44.476563 1.039063 44.191406 0.941406 43.90625 0.96875 Z M 37 27 C 38.105469 27 39 27.894531 39 29 C 39 30.105469 38.105469 31 37 31 C 35.894531 31 35 30.105469 35 29 C 35 27.894531 35.894531 27 37 27 Z M 12 28 L 15 28 L 15 31 L 18 31 L 18 34 L 15 34 L 15 37 L 12 37 L 12 34 L 9 34 L 9 31 L 12 31 Z M 33 31 C 34.105469 31 35 31.894531 35 33 C 35 34.105469 34.105469 35 33 35 C 31.894531 35 31 34.105469 31 33 C 31 31.894531 31.894531 31 33 31 Z M 41 31 C 42.105469 31 43 31.894531 43 33 C 43 34.105469 42.105469 35 41 35 C 39.894531 35 39 34.105469 39 33 C 39 31.894531 39.894531 31 41 31 Z M 37 35 C 38.105469 35 39 35.894531 39 37 C 39 38.105469 38.105469 39 37 39 C 35.894531 39 35 38.105469 35 37 C 35 35.894531 35.894531 35 37 35 Z"/>
</svg>
